<svg width="504" height="504" viewBox="0 0 504 504" fill="none" xmlns="http://www.w3.org/2000/svg">
<path d="M251.783 17.5533C381.145 17.5533 486.013 122.421 486.013 251.783C486.013 381.144 381.145 486.012 251.783 486.012C122.422 486.012 17.5537 381.144 17.5537 251.783C17.5538 122.421 122.422 17.5534 251.783 17.5533Z" fill="#32CD32" stroke="#282828" stroke-width="28"/>
<path d="M243.862 262.398L171.989 401.511C171.989 401.511 157.207 416.292 122.827 381.431C88.4463 346.569 102.703 332.225 102.703 332.225L243.862 262.398Z" fill="#9DFF9D"/>
<path d="M239.001 253.554L89.8112 301.1C89.8112 301.1 68.9076 301.1 69.2475 252.138C69.5874 203.177 89.8112 203.115 89.8112 203.115L239.001 253.554Z" fill="#9DFF9D"/>
<path d="M241.816 243.862L102.703 171.989C102.703 171.989 87.9215 157.208 122.783 122.828C157.644 88.4468 171.988 102.703 171.988 102.703L241.816 243.862Z" fill="#9DFF9D"/>
<path d="M250.661 239.001L203.115 89.8108C203.115 89.8108 203.115 68.9072 252.076 69.2471C301.038 69.587 301.1 89.8108 301.1 89.8108L250.661 239.001Z" fill="#9DFF9D"/>
<path d="M260.352 241.816L332.225 102.703C332.225 102.703 347.006 87.9225 381.387 122.784C415.768 157.645 401.511 171.989 401.511 171.989L260.352 241.816Z" fill="#9DFF9D"/>
<path d="M265.215 250.661L414.405 203.115C414.405 203.115 435.308 203.115 434.968 252.076C434.628 301.038 414.405 301.1 414.405 301.1L265.215 250.661Z" fill="#9DFF9D"/>
<path d="M262.397 260.352L401.51 332.225C401.51 332.225 416.291 347.006 381.43 381.387C346.569 415.768 332.225 401.511 332.225 401.511L262.397 260.352Z" fill="#9DFF9D"/>
<path d="M253.553 265.214L301.099 414.404C301.099 414.404 301.099 435.307 252.138 434.967C203.176 434.627 203.114 414.404 203.114 414.404L253.553 265.214Z" fill="#9DFF9D"/>
</svg>
