<svg width="682" height="964" viewBox="-20 -20 682 964" fill="none" xmlns="http://www.w3.org/2000/svg">
<defs>
<filter id="white-outline" x="-20" y="-20" width="682" height="964" filterUnits="userSpaceOnUse" color-interpolation-filters="sRGB">
  <feMorphology in="SourceAlpha" result="expanded" operator="dilate" radius="20"/>
  <feFlood flood-color="white" result="white-flood"/>
  <feComposite in="white-flood" in2="expanded" operator="in" result="white-outline"/>
  <feMerge>
    <feMergeNode in="white-outline"/>
    <feMergeNode in="SourceGraphic"/>
  </feMerge>
</filter>
<linearGradient id="paint0_linear_286_695" x1="411.048" y1="242.079" x2="411.048" y2="911.5" gradientUnits="userSpaceOnUse">
<stop stop-color="#DCFFCF"/>
<stop offset="0.581731" stop-color="#32CD32"/>
<stop offset="1" stop-color="#32CD32"/>
</linearGradient>
<linearGradient id="paint1_linear_286_695" x1="507.337" y1="9.29716" x2="507.337" y2="855.183" gradientUnits="userSpaceOnUse">
<stop offset="0.379808" stop-color="#282828"/>
<stop offset="1" stop-color="#32CD32"/>
</linearGradient>
</defs>
<g filter="url(#white-outline)">
<path d="M201.424 53.7904C303.362 53.7387 385.961 136.34 385.912 238.287C385.863 340.233 303.185 422.918 201.247 422.971C99.3084 423.022 16.7087 340.421 16.7574 238.474C16.8062 136.528 99.485 53.8423 201.424 53.7904Z" fill="#32CD32" stroke="#282828" stroke-width="28"/>
<path d="M195.001 246.881L137.454 358.202C137.454 358.202 125.624 370.033 98.133 342.157C70.642 314.28 82.0522 302.799 82.0522 302.799L195.001 246.881Z" fill="#9DFF9D"/>
<path d="M191.116 239.807L71.7512 277.902C71.7512 277.902 55.0289 277.911 55.3186 238.74C55.6083 199.569 71.7868 199.512 71.7868 199.512L191.116 239.807Z" fill="#9DFF9D"/>
<path d="M193.371 232.052L82.1095 174.606C82.1095 174.606 70.2904 162.787 98.191 135.268C126.092 107.749 137.561 119.149 137.561 119.149L193.371 232.052Z" fill="#9DFF9D"/>
<path d="M200.448 228.159L162.467 108.822C162.467 108.822 162.474 92.0989 201.642 92.3518C240.81 92.6048 240.852 108.784 240.852 108.784L200.448 228.159Z" fill="#9DFF9D"/>
<path d="M208.2 230.409L265.747 119.087C265.747 119.087 277.577 107.256 305.068 135.133C332.559 163.009 321.149 174.49 321.149 174.49L208.2 230.409Z" fill="#9DFF9D"/>
<path d="M212.086 237.482L331.451 199.387C331.451 199.387 348.173 199.379 347.884 238.549C347.594 277.72 331.415 277.777 331.415 277.777L212.086 237.482Z" fill="#9DFF9D"/>
<path d="M209.829 245.237L321.09 302.683C321.09 302.683 332.909 314.503 305.008 342.022C277.108 369.541 265.638 358.14 265.638 358.14L209.829 245.237Z" fill="#9DFF9D"/>
<path d="M202.753 249.13L240.735 368.467C240.735 368.467 240.727 385.19 201.559 384.937C162.391 384.684 162.349 368.505 162.349 368.505L202.753 249.13Z" fill="#9DFF9D"/>
<path d="M618.5 242.079H203.595C197.328 242.079 192.327 247.308 192.606 253.569L221.482 900.99C221.745 906.869 226.587 911.5 232.471 911.5H589.624C595.508 911.5 600.351 906.869 600.613 900.99L629.489 253.569C629.768 247.308 624.767 242.079 618.5 242.079Z" fill="url(#paint0_linear_286_695)" stroke="#282828" stroke-width="25"/>
<ellipse cx="294.652" cy="461.206" rx="30.9007" ry="32.9912" fill="white" fill-opacity="0.19"/>
<ellipse cx="507.866" cy="763.625" rx="25.7506" ry="27.4926" fill="white" fill-opacity="0.19"/>
<ellipse cx="481.6" cy="441.961" rx="18.0254" ry="19.2449" fill="white" fill-opacity="0.19"/>
<ellipse cx="416.709" cy="713.589" rx="18.0254" ry="19.2449" fill="white" fill-opacity="0.19"/>
<ellipse cx="528.981" cy="549.732" rx="29.3557" ry="31.3416" fill="white" fill-opacity="0.19"/>
<ellipse cx="315.767" cy="800.465" rx="29.3557" ry="31.3416" fill="white" fill-opacity="0.19"/>
<ellipse cx="398.169" cy="543.134" rx="23.1756" ry="24.7434" fill="white" fill-opacity="0.19"/>
<ellipse cx="302.377" cy="622.313" rx="23.1756" ry="24.7434" fill="white" fill-opacity="0.19"/>
<path d="M463.049 855.183C463.049 855.183 463.049 122.09 463.049 11.5001L551.626 11.5" stroke="url(#paint1_linear_286_695)" stroke-width="23" stroke-linecap="round"/>
</g>
</svg>
